<svg xmlns="http://www.w3.org/2000/svg" viewBox="0 0 128 128" role="img" aria-label="IceBreaker icon">
  <defs>
    <linearGradient id="bg" x1="0%" x2="100%" y1="0%" y2="100%">
      <stop offset="0%" stop-color="#fff7f8" />
      <stop offset="100%" stop-color="#f7dbe3" />
    </linearGradient>
    <linearGradient id="heart" x1="0%" x2="100%" y1="0%" y2="100%">
      <stop offset="0%" stop-color="#d76e8b" />
      <stop offset="100%" stop-color="#8e3553" />
    </linearGradient>
  </defs>
  <rect width="128" height="128" rx="30" fill="url(#bg)" />
  <path
    d="M22 38c13-17 31-24 52-24s39 8 50 23"
    fill="none"
    stroke="#a75c74"
    stroke-linecap="round"
    stroke-width="5"
  />
  <path
    d="M17 93c18-20 39-28 62-28 20 0 35 5 49 18"
    fill="none"
    stroke="#a75c74"
    stroke-linecap="round"
    stroke-width="5"
  />
  <path
    d="M64 98 35 73c-11-9-14-20-9-30 7-14 25-15 35-2 10-13 29-12 35 2 5 10 1 21-10 30Z"
    fill="none"
    stroke="url(#heart)"
    stroke-linecap="round"
    stroke-linejoin="round"
    stroke-width="7"
  />
  <circle cx="42" cy="83" r="7" fill="#f3bfd1" opacity=".95" />
  <circle cx="91" cy="55" r="5.5" fill="#f3bfd1" opacity=".9" />
</svg>
