<svg xmlns="http://www.w3.org/2000/svg" viewBox="0 0 512 512" role="img" aria-label="Breaking Ice icon">
  <defs>
    <linearGradient id="bg" x1="0" y1="0" x2="1" y2="1">
      <stop offset="0" stop-color="#fff8fa" />
      <stop offset="1" stop-color="#ead2db" />
    </linearGradient>
  </defs>

  <rect x="32" y="32" width="448" height="448" rx="104" fill="url(#bg)" />

  <path
    d="M146 136h128c52 0 86 31 86 76 0 28-14 50-38 62 31 11 50 36 50 72 0 50-38 82-94 82H146V136Zm122 118c28 0 46-15 46-38s-18-38-46-38h-68v76h68Zm9 132c30 0 50-17 50-43s-20-43-50-43h-77v86h77Z"
    fill="#8e3553"
  />

  <path
    d="M383 128h42l-27 118h40L365 432h-42l29-136h-39l70-168Z"
    fill="#f3c574"
  />
</svg>
